<?xml version="1.0" encoding="UTF-8"?><svg id="Capa_2" xmlns="http://www.w3.org/2000/svg" viewBox="0 0 53.04 52.6"><defs><style>.cls-1{fill:#a93a42;}</style></defs><g id="Capa_1-2"><path class="cls-1" d="m22.5,43.38c0,2.69,0,5.39,0,8.08,0,1.18-.1,1.25-1.22,1.03C9.9,50.3,1.16,40.63.12,29c-.74-8.31,1.9-15.47,7.76-21.34C12.37,3.15,17.88.68,24.24.11c13.64-1.24,26.43,8.42,28.52,22.73,2.01,13.76-7.42,27.03-21.1,29.69-1.05.2-1.2.09-1.2-.99,0-5.45,0-10.9,0-16.35,0-1.11.1-1.19,1.24-1.2,1.39,0,2.79-.02,4.18,0,.57,0,.82-.2.9-.78.26-1.9.56-3.8.88-5.69.11-.68-.03-.95-.78-.93-1.8.05-3.59,0-5.39.03-.76.02-1.07-.25-1.05-1.02.04-1.33-.02-2.66.02-3.99.08-2.74,1.55-4.21,4.3-4.32.8-.03,1.61-.03,2.42,0,.62.02.91-.22.9-.86-.02-1.55-.01-3.1,0-4.65,0-.41-.1-.76-.56-.82-3.26-.4-6.54-.93-9.7.44-3.59,1.56-5.08,4.56-5.29,8.28-.11,1.88-.03,3.78-.03,5.67,0,1.23-.04,1.27-1.23,1.27-1.52,0-3.04.02-4.55,0-.69-.01-.93.26-.92.93.03,1.83.03,3.65,0,5.48-.01.71.23,1,.96.99,1.52-.04,3.03-.01,4.55,0,1.14,0,1.19.05,1.19,1.22,0,2.73,0,5.45,0,8.18Z"/></g></svg>