<?xml version="1.0" encoding="UTF-8"?><svg id="Capa_2" xmlns="http://www.w3.org/2000/svg" viewBox="0 0 59.94 32.77"><defs><style>.cls-1{fill:#fff;}</style></defs><g id="Capa_1-2"><path class="cls-1" d="m57.4.46c-8.18,8.69-16.37,17.39-24.55,26.08-1.15,1.22-2.3,2.45-3.46,3.67h2.12C23.05,21.79,14.6,13.36,6.14,4.94c-1.19-1.19-2.38-2.37-3.57-3.56C1.19.02-.93,2.14.44,3.5c8.46,8.42,16.92,16.85,25.38,25.27,1.19,1.19,2.38,2.37,3.57,3.56.56.56,1.56.59,2.12,0,8.18-8.69,16.37-17.39,24.55-26.08,1.15-1.22,2.3-2.45,3.46-3.67,1.32-1.41-.79-3.53-2.12-2.12h0Z"/></g></svg>