<?xml version="1.0" encoding="UTF-8"?><svg id="Capa_2" xmlns="http://www.w3.org/2000/svg" viewBox="0 0 53.02 53"><defs><style>.cls-1{fill:#a93a42;}</style></defs><g id="Capa_1-2"><path class="cls-1" d="m26.49,53C12.41,53.1-.05,41.71,0,26.44.05,11.44,12.08-.02,26.54,0c14.58.02,26.45,11.6,26.48,26.4.04,15.52-12.56,26.71-26.54,26.6Zm-.07-11.2c2.11,0,4.21.01,6.32,0,5.08-.04,9.09-3.99,9.15-9.06.04-4.18.05-8.36,0-12.54-.06-5.03-4.06-9-9.09-9.03-4.18-.03-8.36-.03-12.54,0-4.98.03-9.01,3.95-9.1,8.93-.08,4.27-.08,8.55,0,12.82.09,4.94,4.11,8.83,9.04,8.89,2.07.02,4.15,0,6.23,0Z"/><path class="cls-1" d="m39.18,26.46c0,1.92,0,3.84,0,5.76,0,4.09-2.65,6.88-6.74,6.95-3.99.07-7.99.06-11.98,0-3.89-.06-6.62-2.9-6.63-6.79,0-3.84,0-7.68,0-11.52,0-4.13,2.3-6.84,6.42-7.04,4.39-.21,8.79-.27,13.18.06,3.21.24,5.68,3.02,5.74,6.26.04,2.11,0,4.21,0,6.32h0Zm-5.07,0c0-4.19-3.3-7.49-7.49-7.49-4.14,0-7.51,3.37-7.51,7.51,0,4.13,3.38,7.5,7.52,7.49,4.19,0,7.48-3.31,7.48-7.5Zm.61-9.76c-.99-.01-1.66.61-1.68,1.56-.02.97.69,1.74,1.63,1.75.94,0,1.64-.66,1.67-1.6.03-1.03-.6-1.7-1.62-1.71Z"/><path class="cls-1" d="m31.59,26.48c0,2.78-2.16,4.95-4.94,4.96-2.74,0-4.99-2.21-5-4.93-.02-2.77,2.24-5.01,5.03-5.01,2.77,0,4.91,2.18,4.91,4.98Z"/></g></svg>